<svg width="125" height="48" viewBox="0 0 125 48" fill="none" xmlns="http://www.w3.org/2000/svg">
<g clip-path="url(#clip0_2056_2615)">
<path d="M20.0374 25.9551C15.2538 25.9551 11.375 29.846 11.375 34.647C11.375 35.0171 11.4052 35.3814 11.4516 35.7387C11.9886 40.023 15.6227 43.3366 20.0363 43.3366C24.5693 43.3366 28.2858 39.8403 28.6628 35.3872C28.6825 35.144 28.6987 34.8961 28.6987 34.6458C28.6999 29.846 24.8222 25.9551 20.0374 25.9551ZM15.7016 31.3718L17.467 33.1444C17.3301 33.3807 17.2223 33.6356 17.1527 33.9079H14.6634C14.791 32.9629 15.1518 32.0993 15.7016 31.3718ZM14.6518 35.4128H17.1608C17.2315 35.6805 17.3359 35.9343 17.4751 36.167L15.7051 37.942C15.1564 37.2204 14.7875 36.3568 14.6518 35.4128ZM19.2881 40.0463C18.3497 39.9148 17.4972 39.5458 16.7757 38.9999L18.5365 37.232C18.7685 37.3682 19.0225 37.4683 19.2881 37.5381V40.0463ZM19.2881 31.7559C19.0155 31.8281 18.7603 31.9351 18.5226 32.076L16.7583 30.3057C17.4833 29.7529 18.3439 29.3874 19.2881 29.2559V31.7559ZM20.7879 29.2535C21.7321 29.3851 22.594 29.7529 23.3178 30.3045L21.5546 32.0748C21.318 31.934 21.0605 31.8269 20.7891 31.7547L20.7879 29.2535ZM20.7879 40.044V37.5393C21.0547 37.4683 21.3064 37.3693 21.5384 37.232L23.3004 38.9999C22.5789 39.5458 21.7252 39.9124 20.7879 40.044ZM24.3745 37.9501L22.5986 36.1659C22.7378 35.9319 22.8503 35.6817 22.9211 35.414H25.4103C25.2781 36.3544 24.9243 37.225 24.3745 37.9501ZM22.9245 33.9079C22.8538 33.6356 22.7471 33.3807 22.6102 33.1444L24.3779 31.3718C24.9243 32.0993 25.285 32.9629 25.4149 33.9091H22.9245V33.9079Z" fill="#333333"/>
<path d="M91.9642 25.9551C87.1806 25.9551 83.3018 29.846 83.3018 34.647C83.3018 35.0171 83.3319 35.3814 83.3783 35.7387C83.9154 40.023 87.5495 43.3366 91.9619 43.3366C96.4949 43.3366 100.211 39.8403 100.59 35.3872C100.609 35.144 100.625 34.8961 100.625 34.6458C100.628 29.846 96.749 25.9551 91.9642 25.9551ZM87.6283 31.3718L89.3926 33.1444C89.2557 33.3807 89.1479 33.6356 89.0783 33.9079H86.589C86.7178 32.9629 87.0785 32.0993 87.6283 31.3718ZM86.5797 35.4128H89.0887C89.1595 35.6805 89.2639 35.9343 89.403 36.167L87.6341 37.942C87.0832 37.2204 86.7131 36.3568 86.5797 35.4128ZM91.2149 40.0463C90.2765 39.9148 89.4239 39.5458 88.7024 38.9999L90.4632 37.232C90.6952 37.3682 90.9493 37.4683 91.2149 37.5381V40.0463ZM91.2149 31.7559C90.9423 31.8281 90.6871 31.9351 90.4493 32.076L88.685 30.3057C89.41 29.7529 90.2695 29.3874 91.2149 29.2559V31.7559ZM92.7158 29.2535C93.66 29.3851 94.5219 29.7529 95.2457 30.3045L93.4814 32.0748C93.2448 31.934 92.9873 31.8246 92.7158 31.7547V29.2535ZM92.7158 40.044V37.5393C92.9826 37.4683 93.2343 37.3693 93.4663 37.232L95.2283 38.9999C94.5068 39.5458 93.6519 39.9124 92.7158 40.044ZM96.3012 37.9501L94.5253 36.1682C94.6645 35.9331 94.7782 35.684 94.8478 35.4152H97.337C97.2048 36.3544 96.8522 37.225 96.3012 37.9501ZM94.8513 33.9079C94.7805 33.6356 94.675 33.3807 94.5369 33.1444L96.3035 31.3718C96.851 32.0993 97.2106 32.9629 97.3417 33.9091H94.8513V33.9079Z" fill="#333333"/>
<path d="M112.765 21.4552V15.0235C112.765 13.9888 112.015 13.1124 110.997 12.953C108.553 12.5689 104.22 11.8438 102.274 11.242C99.4832 10.3784 88.7004 5.79738 84.9666 4.93726C81.2316 4.07715 64.3915 -0.515556 48.2625 5.09439C45.5332 6.04296 33.2552 11.9322 26.0357 14.9944C23.9096 15.041 2.86475 19.4428 1.74425 22.4596C0.623746 25.4776 0.272284 26.9417 0.0658144 27.7076C-0.140655 28.4734 0.0658144 32.1385 1.62942 34.6909C3.22318 35.5953 6.29122 36.2028 9.83832 36.6102C9.79772 36.3925 9.75365 36.1784 9.72581 35.9584C9.66433 35.4882 9.63533 35.0587 9.63533 34.649C9.63533 28.8936 14.3006 24.2101 20.0377 24.2101C25.7748 24.2101 30.44 28.8924 30.44 34.649C30.44 34.9446 30.4203 35.238 30.3983 35.5266C30.3438 36.1726 30.2278 36.7999 30.0596 37.4039C30.0677 37.4039 30.0874 37.4039 30.0874 37.4039L81.7234 36.3611C81.7002 36.2273 81.67 36.0946 81.6526 35.9584C81.5911 35.4905 81.5621 35.0599 81.5621 34.649C81.5621 28.8936 86.2274 24.2113 91.9645 24.2113C97.7016 24.2113 102.368 28.8924 102.368 34.649C102.368 34.6711 102.366 34.6898 102.365 34.7107L102.585 34.6921L111.413 33.0242C111.413 33.0242 114.794 31.2179 114.794 26.2481C114.796 22.9333 112.765 21.4552 112.765 21.4552ZM61.5427 15.3576L42.2587 15.95C42.6136 13.0507 40.9027 12.4001 40.9027 12.4001C48.5688 5.41795 64.0192 5.18168 64.0192 5.18168L61.5427 15.3576ZM83.1849 14.4718L65.6118 15.0643L67.2044 5.18284C76.2867 5.06412 81.4751 7.07533 81.4751 7.07533L84.0699 11.277L83.1849 14.4718ZM93.0919 14.4113H88.1958L83.3009 7.66658C86.9733 9.13308 89.9126 10.5786 91.6629 11.4923C92.7254 12.0463 93.3054 13.23 93.0919 14.4113Z" fill="#3563E9"/>
</g>
<path d="M114.796 42.5166C120.431 42.5166 125 37.948 125 32.3125C125 26.6769 120.431 22.1084 114.796 22.1084C109.16 22.1084 104.592 26.6769 104.592 32.3125C104.592 37.948 109.16 42.5166 114.796 42.5166Z" fill="#333333"/>
<path d="M125 32.3125C125 37.9478 120.431 42.5166 114.796 42.5166V22.1084C120.431 22.1084 125 26.6772 125 32.3125Z" fill="#333333"/>
<path d="M116.454 32.313L119.5 35.3594L117.842 37.0186L114.796 33.9715L111.749 37.0186L110.091 35.3594L113.137 32.313L110.091 29.2667L111.749 27.6074L114.796 30.6546L117.842 27.6074L119.5 29.2667L116.454 32.313Z" fill="white"/>
<path d="M116.454 32.313L119.501 35.3594L117.842 37.0186L114.796 33.9715V30.6546L117.842 27.6074L119.501 29.2667L116.454 32.313Z" fill="white"/>
<defs>
<clipPath id="clip0_2056_2615">
<rect width="114.796" height="47.619" fill="white"/>
</clipPath>
</defs>
</svg>
